<svg height="960" viewBox="0 0 960 960" width="960" xmlns="http://www.w3.org/2000/svg"><g fill="none" fill-rule="evenodd" stroke="#000"><g transform="translate(388 746)"><g stroke-linecap="round"><path d="m7 25c28.8553774 5.0798101 114.783758 13 166 13" stroke-width="15"/><path d="m12 65c32.6676871 5.4017926 112.445529 13 161 13" stroke-width="15"/><path d="m0 0c5.75617537 15.9531853 8.63426305 35.2457022 8.63426305 57.8775506v51.6383094c29.80324355 42.775068 55.58061885 66.080794 77.33212585 69.917178.9585287.169058 4.5406112.566962 7.5336111.566962 3.6986269 0 6.920907-.440959 8.240694-.698254 21.602414-4.211431 47.144095-27.473393 76.625043-69.785886 0-11.7936913 0-29.006461 0-51.6383094s2.878088-41.9243653 8.634263-57.8775506" stroke-linejoin="round" stroke-width="20"/></g><path d="m181 106-9.319969 12.447894c-11.476976 24.389951-22.040978 36.716807-31.692004 36.980566-13.941847.381027-28.631145.57154-44.0678935.57154-.6586649 0-1.2988301-.03757-1.9204956-.110599-.6202599.072989-1.260756.110599-1.9197714.110599-15.4367486 0-30.1260463-.190513-44.0678932-.57154-9.6510267-.263759-20.2150281-12.590615-31.6920044-36.980566l-9.3199689-12.447894c25.2543888 1.583118 53.6143443 2.374677 85.0798665 2.374677.6590154 0 1.2995115.03761 1.9214881.110716.6199488-.073146 1.260114-.110716 1.9187789-.110716 31.4655225 0 59.8254775-.791559 85.0798665-2.374677z" fill="#000" stroke-width="2"/></g><g stroke-linecap="round" stroke-linejoin="round"><path d="m480.5 23.3157895c-145.81877 0-264.028239 118.1625745-264.028239 263.9234975 0 61.167133 20.816432 117.474257 55.754151 162.228881l.571124.950009c65.305507 84.587731 100.195095 151.997973 104.222538 199.62616v79.950034h206.946049v-79.950697c3.870853-47.434312 37.417315-113.266693 102.690181-197.838686l3.162173-4.082918c34.308077-44.535155 54.710262-100.327321 54.710262-160.882783 0-145.760923-118.209469-263.9234975-264.028239-263.9234975z" stroke-width="40"/><path d="m376.843266 733.378113c6.17448 23.731265 9.261719 47.748069 9.261719 72.05041 0 24.302342.308724 41.925009.926172 52.868001l50.639159 59.327253c13.879667 13.128008 27.6091 19.692012 41.188299 19.692012" stroke-width="40"/><path d="m480.915181 733.378113c6.174479 23.731265 9.261719 47.748069 9.261719 72.05041 0 24.302342.308724 41.925009.926171 52.868001l50.639159 59.327253c13.879667 13.128008 27.6091 19.692012 41.1883 19.692012" stroke-width="40" transform="matrix(-1 0 0 1 1063.84571 0)"/><path d="m465.029197 300c-18.932275 0-50.713231 46.625089-60.00907 84.5-11.254963 45.857156 2.819134 84.5 14.023669 84.5 20.458723 0 37.043795-37.831939 37.043795-84.5s-16.585072-84.5-37.043795-84.5c-20.458724 0-37.043796 37.831939-37.043796 84.5" stroke-width="20"/><path d="m511.014599 300c-18.932276 0-50.713232 46.625089-60.00907 84.5-11.254964 45.857156 2.819133 84.5 14.023668 84.5 20.458723 0 37.043796-37.831939 37.043796-84.5s-16.585073-84.5-37.043796-84.5" stroke-width="20"/><path d="m575.426733 384.129675c-.433684-16.414198-.916717-27.722854-1.449099-33.925968-2.15885-25.1541-9.005283-48.694842-24.36463-48.694842-12.388881 0-45.57199 54.266313-52.622074 82.991135-11.254963 45.857156 2.819134 84.5 14.023669 84.5 20.458723 0 37.043795-37.831939 37.043795-84.5s-16.585072-84.5-37.043795-84.5" stroke-width="20"/><path d="m382 384.5c0 56.097711 31.794925 123.135102 39.734632 183.686524 1.132773 8.638982 1.779967 17.14594 1.779967 25.470269v83.843207" stroke-width="20"/><path d="m531.922855 384.5c0 64.101274 41.514599 142.486476 41.514599 209.156793 0 30.320103.692381 58.267839 2.077145 83.843207" stroke-width="20" transform="matrix(-1 0 0 1 1107.437454 0)"/></g></g></svg>